<?xml version="1.0" encoding="utf-8"?>

<!-- Uploaded to: SVG Repo, www.svgrepo.com, Generator: SVG Repo Mixer Tools -->
<svg width="800px" height="800px" viewBox="-1.5 0 250 250" xmlns="http://www.w3.org/2000/svg" xmlns:xlink="http://www.w3.org/1999/xlink" preserveAspectRatio="xMidYMid">
  <defs>
    <style>

      .cls-3 {
        fill: #987160;
      }

      .cls-4 {
        fill: #00e2a5;
      }

      .cls-5 {
        fill: url(#linear-gradient-1);
      }
    </style>

    <linearGradient id="linear-gradient-1" gradientUnits="userSpaceOnUse" x1="118.5" y1="250" x2="118.5" y2="60">
      <stop offset="0" stop-color="#fce202"/>
      <stop offset="1" stop-color="#cfe700"/>
    </linearGradient>
  </defs>
  <g id="apple">
    <path d="M111.020,70.812 C110.505,63.506 109.359,55.069 107.000,46.812 C102.740,31.902 91.438,14.459 89.438,11.259 C87.438,8.059 86.800,3.412 92.000,0.812 C97.200,-1.788 101.800,2.394 105.000,6.812 C105.000,6.812 116.400,23.213 122.000,42.812 C124.659,52.119 125.965,62.213 126.588,70.812 C126.588,70.812 111.020,70.812 111.020,70.812 Z" id="path-1" class="cls-3" fill-rule="evenodd"/>
    <path d="M183.065,5.528 C217.473,-3.692 244.464,4.784 245.972,10.413 C247.653,16.685 228.344,36.877 193.935,46.097 C159.527,55.317 133.743,51.348 131.027,41.212 C128.311,31.076 148.656,14.748 183.065,5.528 Z" id="path-2" class="cls-4" fill-rule="evenodd"/>
    <path d="M148.000,249.812 C137.636,249.812 127.701,247.839 118.500,244.225 C109.299,247.839 99.364,249.812 89.000,249.812 C41.503,249.812 -0.000,187.399 -0.000,136.312 C-0.000,85.226 21.503,59.812 69.000,59.812 C85.139,59.812 100.167,69.219 118.500,69.219 C136.833,69.219 151.861,59.812 168.000,59.812 C215.496,59.812 237.000,85.226 237.000,136.312 C237.000,187.399 195.496,249.812 148.000,249.812 Z" id="path-3" class="cls-5" fill-rule="evenodd"/>
  </g>
</svg>